<svg preserveAspectRatio="none" width="100%" height="100%" overflow="visible" style="display: block;" viewBox="0 0 60 60" fill="none" xmlns="http://www.w3.org/2000/svg">
<g id="7bMp7vAc88WMjdbc9ydj4PDuk4.svg" clip-path="url(#clip0_0_4)">
<path id="Vector" d="M28.8806 42.8734C29.1955 43.1338 29.5914 43.2762 30 43.2762C30.4086 43.2762 30.8045 43.1338 31.1194 42.8734C33.521 40.8966 35.4545 38.412 36.7807 35.5983C38.1069 32.7847 38.7929 29.712 38.7891 26.6014C38.7891 19.8154 35.706 12.7123 31.1194 8.92371C30.8042 8.66401 30.4084 8.522 30 8.522C29.5916 8.522 29.1958 8.66401 28.8806 8.92371C24.294 12.7123 21.2109 19.8154 21.2109 26.6014C21.2071 29.712 21.8931 32.7847 23.2193 35.5983C24.5455 38.412 26.479 40.8966 28.8806 42.8734Z" fill="var(--fill-0, #26180F)"/>
<path id="Vector_2" d="M26.3083 55.08C27.0917 55.9894 27.9334 56.856 28.8806 57.6377C29.1955 57.898 29.5914 58.0404 30 58.0404C30.4086 58.0404 30.8045 57.898 31.1194 57.6377C32.0666 56.856 32.9083 55.9894 33.6917 55.08C32.3794 54.1903 31.1297 53.1686 30 51.9146C28.8703 53.1686 27.6223 54.1903 26.3083 55.08Z" fill="var(--fill-0, #E8AB37)"/>
<path id="Vector_3" d="M22.8086 41.6194C19.487 37.3187 17.6885 32.0363 17.6957 26.6023C17.6957 23.304 18.3729 19.9474 19.5257 16.8197C17.5337 15.9206 15.42 15.2923 13.1974 15.0591C12.3566 14.9597 11.5774 15.4877 11.3323 16.2951C10.4233 19.2698 10.1851 22.409 10.6348 25.4867C11.0844 28.5645 12.2108 31.5043 13.9329 34.0946C16.114 37.3974 19.1934 40.0081 22.8086 41.6194ZM37.1537 41.6726C40.7829 40.0423 43.8743 37.4146 46.068 34.0954C47.79 31.505 48.9163 28.565 49.3659 25.4871C49.8154 22.4092 49.5769 19.2699 48.6677 16.2951C48.5503 15.9034 48.2993 15.5653 47.9584 15.3395C47.6175 15.1136 47.2082 15.0145 46.8017 15.0591C44.58 15.2923 42.4663 15.9197 40.4743 16.8197C41.6271 19.9483 42.3043 23.304 42.3043 26.6014C42.3043 32.1274 40.47 37.4014 37.1537 41.6726ZM28.6457 47.9829C22.7957 50.0829 16.3517 49.9157 10.5866 47.4069C8.80597 46.6299 7.12368 45.6447 5.57486 44.472C4.91914 45.3814 4.31829 46.314 3.852 47.2697C3.55886 47.8723 3.71657 48.7354 4.13057 49.2643C5.23971 50.6871 11.3854 56.0811 19.0766 54.4586C23.6726 53.49 26.6897 50.6409 28.6457 47.9829ZM54.4251 44.472C52.8752 45.6449 51.1921 46.6305 49.4109 47.4086C43.7691 49.8583 37.5403 50.2217 31.3603 47.9931C33.318 50.6477 36.3343 53.4909 40.9226 54.4586C46.6457 55.6629 53.1497 52.7511 55.8694 49.2643C56.2826 48.7354 56.4411 47.8723 56.1454 47.2671C55.6809 46.3131 55.0809 45.3814 54.4251 44.472Z" fill="var(--fill-0, #26180F)"/>
<path id="Vector_4" d="M11.9871 44.1831C14.6365 45.3405 17.496 45.9396 20.3871 45.9429C21.4269 45.9429 22.4631 45.8366 23.4934 45.6806C18.3776 43.9366 13.9846 40.5453 11.0023 36.0377C9.11332 33.1829 7.8432 29.9641 7.27371 26.5886C5.11114 26.9349 2.952 27.6017 0.96 28.6174C0.595983 28.8027 0.307869 29.1089 0.145185 29.4836C-0.0174987 29.8582 -0.044589 30.2778 0.0685713 30.6703C1.82143 36.7449 6.19543 41.67 11.9871 44.1831ZM59.04 28.6166C57.0489 27.6026 54.8889 26.9366 52.7254 26.592C52.1545 29.9659 50.8848 33.1832 48.9977 36.0377C46.0074 40.5556 41.6014 43.9525 36.4714 45.6951C40.3286 46.284 44.304 45.7929 48.0129 44.1831C53.8046 41.67 58.1786 36.7449 59.9306 30.6694C60.0438 30.2771 60.0168 29.8575 59.8543 29.4829C59.6918 29.1083 59.4039 28.802 59.04 28.6166Z" fill="var(--fill-0, #26180F)"/>
<path id="Vector_5" d="M24.7269 7.266C24.7269 7.73225 24.5416 8.1794 24.212 8.50909C23.8823 8.83878 23.4351 9.024 22.9689 9.024C22.5026 9.024 22.0555 8.83878 21.7258 8.50909C21.3961 8.1794 21.2109 7.73225 21.2109 7.266C21.2109 6.79975 21.3961 6.3526 21.7258 6.02291C22.0555 5.69322 22.5026 5.508 22.9689 5.508C23.4351 5.508 23.8823 5.69322 24.212 6.02291C24.5416 6.3526 24.7269 6.79975 24.7269 7.266ZM38.7891 7.266C38.7891 7.73214 38.604 8.17918 38.2744 8.50879C37.9448 8.8384 37.4977 9.02357 37.0316 9.02357C36.5654 9.02357 36.1184 8.8384 35.7888 8.50879C35.4592 8.17918 35.274 7.73214 35.274 7.266C35.274 6.79998 35.4591 6.35304 35.7887 6.02351C36.1182 5.69398 36.5651 5.50886 37.0311 5.50886C37.4972 5.50886 37.9441 5.69398 38.2736 6.02351C38.6032 6.35304 38.7883 6.79998 38.7883 7.266H38.7891ZM31.7571 3.75C31.7571 3.98075 31.7117 4.20924 31.6234 4.42243C31.5351 4.63562 31.4057 4.82932 31.2425 4.99249C31.0793 5.15565 30.8856 5.28508 30.6724 5.37339C30.4592 5.46169 30.2308 5.50714 30 5.50714C29.7692 5.50714 29.5408 5.46169 29.3276 5.37339C29.1144 5.28508 28.9207 5.15565 28.7575 4.99249C28.5943 4.82932 28.4649 4.63562 28.3766 4.42243C28.2883 4.20924 28.2429 3.98075 28.2429 3.75C28.2429 3.28398 28.428 2.83704 28.7575 2.50751C29.087 2.17798 29.534 1.99286 30 1.99286C30.466 1.99286 30.913 2.17798 31.2425 2.50751C31.572 2.83704 31.7571 3.28398 31.7571 3.75Z" fill="var(--fill-0, #E8AB37)"/>
</g>
<defs>
<clipPath id="clip0_0_4">
<rect width="60" height="60" fill="white"/>
</clipPath>
</defs>
</svg>
